<svg xmlns="http://www.w3.org/2000/svg" width="834" height="238" viewBox="0 0 834 238" fill="none"><g clip-path="url(#clip0_77_455)"><path d="M810.01 138.12V1.40002H833.91V177.66H812.28C791.68 154.05 770.98 130.53 750.47 106.83C732.14 85.65 714.16 64.11 695.59 43.11C695.34 42.83 695.62 42.33 694.65 42.58V177.65H671.17V1.40002H691.56C698.67 9.92002 706.16 18.11 713.4 26.51C737.48 54.45 761.42 82.59 785.49 110.53C792.62 118.8 799.96 127.67 807.33 135.65C808.14 136.52 809.03 137.45 810.01 138.12Z" fill="white"></path><path d="M0 177.65L75.39 0.359948C76.11 -0.0700521 90.39 -0.0800521 92.1 0.129948C92.55 0.189948 93.02 0.0999479 93.32 0.559948L140.89 108.29L184.58 91.5799L143.84 114.51L171.81 177.64H145.85L122.53 125.78L25.75 177.64H0V177.65ZM84.46 39.6899L38.32 148.41L118.62 116.91L84.46 39.6899Z" fill="white"></path><path d="M641.09 1.40002V23.63H566.52V77.58H638.62V100.23H566.52V155.41H643.56V177.65H541.38V1.40002H641.09Z" fill="white"></path><path d="M457.74 177.65H431.78L370.18 39.6899L311.88 177.65H285.92L361.33 0.359948C362.05 -0.0700521 376.33 -0.0800521 378.04 0.129948C378.49 0.189948 378.96 0.0999479 379.26 0.559948L457.75 177.64L457.74 177.65Z" fill="white"></path><path d="M176.75 1.40002L229.28 125.36L281.4 1.40002H306.54L232.83 178.23L227.21 178.5L151.21 1.40002H176.75Z" fill="white"></path><path d="M502.65 1.40002L502.67 180.35C501.76 193.04 501.5 206.46 494.59 217.57C484.85 233.2 464.26 240.31 446.61 236.26L442.09 213.08C450.4 212.98 461.23 213.76 468.18 208.48C479.04 200.22 476.23 184.04 477.54 172.12L477.52 1.40002H502.65Z" fill="white"></path></g><defs><clipPath id="clip0_77_455"><rect width="833.91" height="237.37" fill="white"></rect></clipPath></defs></svg>